<?xml version="1.0" encoding="utf-8"?>
<!-- Generator: Adobe Illustrator 27.8.0, SVG Export Plug-In . SVG Version: 6.00 Build 0)  -->
<svg version="1.1" xmlns="http://www.w3.org/2000/svg" xmlns:xlink="http://www.w3.org/1999/xlink" x="0px" y="0px"
	 viewBox="0 0 791.4 460.4" style="enable-background:new 0 0 791.4 460.4;" xml:space="preserve">
<style type="text/css">
	.st0{display:none;}
	.st1{display:inline;}
	.st2{fill:#F2F2F2;}
	.st3{fill:#00A1DE;}
</style>
<g id="Bildmarke_x5F_weiss_x5F_Tr채gerfl채che" class="st0">
</g>
<g id="Bildmarke_x5F_weiss_x5F_Freiraum" class="st0">
	<g>
		<rect x="219.5" y="429.9" class="st1" width="30.5" height="30.5"/>
		<rect y="30.5" class="st1" width="30.5" height="30.5"/>
		<rect x="494.3" class="st1" width="30.5" height="30.5"/>
		<rect x="760.9" y="30.5" class="st1" width="30.5" height="30.5"/>
	</g>
	<g class="st1">
		<g>
			<rect x="30.5" y="30.5" class="st2" width="162.7" height="399.5"/>
		</g>
		<g>
			<polygon class="st2" points="362.3,139.5 347.1,165.7 453.5,227.2 453.5,429.9 223.7,429.9 223.7,268 314.8,320.7 330,294.6 
				223.7,233.2 223.7,30.5 453.5,30.5 453.5,192.1 			"/>
		</g>
		<g>
			<polygon class="st2" points="611.3,169.6 611.3,306.2 641.5,306.2 641.5,200.1 760.9,200.1 760.9,429.9 483.9,429.9 483.9,30.5 
				760.9,30.5 760.9,169.6 			"/>
		</g>
	</g>
</g>
<g id="Bildmarke_x5F_weiss" class="st0">
</g>
<g id="Bildmarke_x5F_Tr채gerfl채che">
</g>
<g id="Bildmarke_x5F_Freiraum">
	<g class="st0">
		<rect x="219.5" y="429.9" class="st1" width="30.5" height="30.5"/>
		<rect y="30.5" class="st1" width="30.5" height="30.5"/>
		<rect x="494.3" class="st1" width="30.5" height="30.5"/>
		<rect x="760.9" y="30.5" class="st1" width="30.5" height="30.5"/>
	</g>
	<g>
		<g>
			<rect x="30.5" y="30.5" class="st3" width="162.7" height="399.5"/>
		</g>
		<g>
			<polygon class="st3" points="362.3,139.5 347.1,165.7 453.5,227.2 453.5,429.9 223.7,429.9 223.7,268 314.8,320.7 330,294.6 
				223.7,233.2 223.7,30.5 453.5,30.5 453.5,192.1 			"/>
		</g>
		<g>
			<polygon class="st3" points="611.3,169.6 611.3,306.2 641.5,306.2 641.5,200.1 760.9,200.1 760.9,429.9 483.9,429.9 483.9,30.5 
				760.9,30.5 760.9,169.6 			"/>
		</g>
	</g>
</g>
<g id="Bildmarke">
</g>
</svg>
